<svg width="50" height="51" viewBox="0 0 50 51" fill="none" xmlns="http://www.w3.org/2000/svg">
<path d="M13.4814 0.644409V4.95691C10.9556 3.92566 8.24711 3.39441 5.53865 3.39441C3.37437 3.39441 1.5383 3.51975 0 3.75711L0.608642 20.2069H3.98661V23.6757C6.60377 26.3632 10.0122 27.7694 13.451 27.9257V37.0479H4.35179V44.3944C4.35179 47.8319 7.09069 50.6444 10.4382 50.6444H40.8704C45.9221 50.6444 50 46.4569 50 41.2694V0.644409H13.4814ZM10.1035 20.6757C10.1035 20.6757 10.1035 18.6132 10.1035 13.9569C2.89066 16.2694 5.53865 9.64441 5.53865 9.64441C5.53865 9.64441 13.4206 11.2694 16.3116 14.2069L20.6026 18.6132L19.9939 19.2382C19.2293 20.0309 18.3192 20.66 17.3163 21.0891C16.3133 21.5182 15.2375 21.7388 14.1509 21.7382C12.7206 21.7382 11.3208 21.3632 10.1035 20.6757ZM44.7639 41.2694C44.7639 42.9882 42.5441 44.3944 40.8704 44.3944C37.4959 44.3944 36.1264 42.9882 36.1264 41.2694V37.0479H19.5679V26.9257C21.3025 26.2069 22.9154 25.1444 24.3153 23.7069L24.9239 23.0819L33.5362 31.8944H37.8271V27.4882L19.5679 8.83191V6.01722H44.7639V41.2694Z" fill="#FBAE17"/>
</svg>
