<svg width="50" height="51" viewBox="0 0 50 51" fill="none" xmlns="http://www.w3.org/2000/svg">
<path d="M2.64447 18.1926C3.30325 18.1926 3.93505 17.9308 4.40088 17.465C4.86672 16.9992 5.12842 16.3674 5.12842 15.7086V8.25675C5.12842 7.59797 5.39012 6.96617 5.85595 6.50034C6.32178 6.03451 6.95358 5.77281 7.61237 5.77281H15.0642C15.723 5.77281 16.3548 5.51111 16.8206 5.04527C17.2865 4.57944 17.5482 3.94764 17.5482 3.28886C17.5482 2.63007 17.2865 1.99827 16.8206 1.53244C16.3548 1.06661 15.723 0.804908 15.0642 0.804908H7.61237C5.63601 0.804908 2.28554 0.13499 0.888052 1.53248C-0.50944 2.92997 0.160518 6.2804 0.160518 8.25675V15.7086C0.160518 16.3674 0.422219 16.9992 0.88805 17.465C1.35388 17.9308 1.98568 18.1926 2.64447 18.1926ZM15.0642 45.516H7.61237C6.95358 45.516 6.32178 45.2543 5.85595 44.7885C5.39012 44.3226 5.12842 43.6908 5.12842 43.032V35.5802C5.12842 34.9214 4.86672 34.2896 4.40088 33.8238C3.93505 33.3579 3.30325 33.0962 2.64447 33.0962C1.98568 33.0962 1.35388 33.3579 0.88805 33.8238C0.422219 34.2896 0.160518 34.9214 0.160518 35.5802V43.032C0.160518 45.0084 -0.509396 48.3588 0.888097 49.7563C2.28559 51.1538 5.63601 50.4839 7.61237 50.4839H15.0642C15.723 50.4839 16.3548 50.2222 16.8206 49.7564C17.2865 49.2905 17.5482 48.6587 17.5482 47.9999C17.5482 47.3412 17.2865 46.7093 16.8206 46.2435C16.3548 45.7777 15.723 45.516 15.0642 45.516ZM37.4198 28.1283C38.0785 28.1283 38.7103 27.8666 39.1762 27.4008C39.642 26.935 39.9037 26.3032 39.9037 25.6444C39.9037 24.9856 39.642 24.3538 39.1762 23.888C38.7103 23.4222 38.0785 23.1604 37.4198 23.1604H34.5881C34.142 21.4518 33.2487 19.893 32.0001 18.6443C30.7514 17.3957 29.1926 16.5024 27.484 16.0564V13.2247C27.484 12.5659 27.2223 11.9341 26.7564 11.4682C26.2906 11.0024 25.6588 10.7407 25 10.7407C24.3412 10.7407 23.7094 11.0024 23.2436 11.4682C22.7778 11.9341 22.5161 12.5659 22.5161 13.2247V16.0564C20.8075 16.5024 19.2486 17.3957 17.9999 18.6443C16.7513 19.893 15.858 21.4518 15.412 23.1604H12.5803C11.9215 23.1604 11.2897 23.4222 10.8238 23.888C10.358 24.3538 10.0963 24.9856 10.0963 25.6444C10.0963 26.3032 10.358 26.935 10.8238 27.4008C11.2897 27.8666 11.9215 28.1283 12.5803 28.1283H15.412C15.858 29.8369 16.7513 31.3958 17.9999 32.6445C19.2486 33.8931 20.8075 34.7864 22.5161 35.2324V38.0641C22.5161 38.7229 22.7778 39.3547 23.2436 39.8206C23.7094 40.2864 24.3412 40.5481 25 40.5481C25.6588 40.5481 26.2906 40.2864 26.7564 39.8206C27.2223 39.3547 27.484 38.7229 27.484 38.0641V35.2324C29.1926 34.7864 30.7514 33.8931 32.0001 32.6445C33.2487 31.3958 34.142 29.8369 34.5881 28.1283H37.4198ZM47.3556 33.0962C46.6968 33.0962 46.065 33.3579 45.5991 33.8238C45.1333 34.2896 44.8716 34.9214 44.8716 35.5802V43.032C44.8716 43.6908 44.6099 44.3226 44.1441 44.7885C43.6782 45.2543 43.0464 45.516 42.3877 45.516H34.9358C34.277 45.516 33.6452 45.7777 33.1794 46.2435C32.7136 46.7093 32.4519 47.3412 32.4519 47.9999C32.4519 48.6587 32.7136 49.2905 33.1794 49.7564C33.6452 50.2222 34.277 50.4839 34.9358 50.4839H42.3877C44.364 50.4839 47.7144 51.1538 49.1119 49.7563C50.5094 48.3588 49.8395 45.0084 49.8395 43.032V35.5802C49.8395 34.9214 49.5778 34.2896 49.112 33.8238C48.6461 33.3579 48.0143 33.0962 47.3556 33.0962ZM42.3877 0.804908H34.9358C34.277 0.804908 33.6452 1.06661 33.1794 1.53244C32.7136 1.99827 32.4519 2.63007 32.4519 3.28886C32.4519 3.94764 32.7136 4.57944 33.1794 5.04527C33.6452 5.51111 34.277 5.77281 34.9358 5.77281H42.3877C43.0464 5.77281 43.6782 6.03451 44.1441 6.50034C44.6099 6.96617 44.8716 7.59797 44.8716 8.25675V15.7086C44.8716 16.3674 45.1333 16.9992 45.5991 17.465C46.065 17.9308 46.6968 18.1926 47.3556 18.1926C48.0143 18.1926 48.6461 17.9308 49.112 17.465C49.5778 16.9992 49.8395 16.3674 49.8395 15.7086V8.25675C49.8395 6.2804 50.5094 2.92998 49.1119 1.53249C47.7144 0.134994 44.364 0.804908 42.3877 0.804908Z" fill="#FBAE17"/>
</svg>
